<?xml version="1.0" encoding="UTF-8"?>
<svg version="1.1" viewBox="0 0 2000 2000" width="1280" height="1280" xmlns="http://www.w3.org/2000/svg">
<path transform="translate(0)" d="m0 0h2e3v2e3h-2e3z" fill="#F8F8F8"/>
<path transform="translate(997,349)" d="m0 0 4 1 9 9 7 8h2l4-8 9 1 7 2 1 2 11-7 3 3 4 8 5-3v8l-1 3 9-7 3 1 2 3 4-2h3l1 8 4-8h1v10l-1 8 4-1 5-7 2 1 1 8 6-5h3l-1 8-5 19 37 14 28 12 28 13 27 14 24 14 19 12 20 14 16 12 16 13 14 12 7 7 8 7 14 14 7 8 9 10 9 11 14 18 18 27 12 20 15 28 13 29 11 29 10 31 9-1 44-8 22-3 29-2 32-5 10-2h4l1 5-40 12 13-2 21-4 1 5-36 11h-4v2l12-2h16l113-17 18-1v2l2-1v-2l31-4 1 3-55 12-145 36-89 22-74 19-63 17-18 5-2 2-24 5-1 2 32-6 28-6 36-12 41-12 49-13 78-20 71-17 73-16 66-14 37-6h7v1l-9 2h-5v2l4 1-92 22-247 59-55 13h-4v5l74-19 83-21 78-19 70-16 46-11 32-6 7-1h8v2l8-1h9l-2 3-129 28-60 14-89 22-86 22-71 18-32 8h4l43-10 67-17 65-17 78-19 124-29 54-12h5l-4 2-280 70-181 45-1 3 33-8 52-13 82-22 64-16 75-18 116-27 14-2h6l2 7 13-2h8v1l-71 16-41 10-13 2-12 3-19 4-27 9-39 15-15 4h-3l-1 2-24 8-16 3-16 6 54-13 7 1-3 2-132 35h-4v-3h-3l-3 1 4 2-3 2-9 3-1-7-16 5v4l-13 6 16-1-1 9-10 56-6 27-6 20-20 48-2 10v5l8-9 9-15 8-16 10-25 9-29 8-36 5-34 2-15 10-4-1 18-3 32h3l1-11 7-40 14-4 9-1v53h2l1-17 2-19-2-19 34-9h4v51l-1 32-2 19-5 21-11 31-11 29-11 28-8 16-10 19-14 24-17 29-6 10 1 8 19 55 13 33 12 26 19 39 6 15 4 23 11 32 11 30 7 25 7 28 10 28 14 32 16 36 11 28 8 27 3 14 1 16-4-5-7-14 3 10 1 6-8 5h-2v8l-18 7-4-2-1 1v8l-3 2-13-18-3-3 5 13-3 1-1-3h-2l-10-13-10-14-14-24-16-29-13-24-7-9v7l-3 2-11-19 1-3-4-1-4-5 1-3-8-13h-2l-13-23-7-12-1-5-2-4-2-2-6-12-3-3-6-9-5-5v-6l2-3h2l-4-6-8-11-18-44v-2l-2 1h-8l-5-4-4-8-1-3v-8l5-5h3l-6-16-1-2-5 5-4-11-3 2h-6l-6-5-4-11 1-7 4-4 5-2-11-32-12 7-25 15-24 13-26 13-31 13-27 10-34 10-37 8-27 4-20 2-18 1h-36l-29-2-30-4-31-6-31-8-36-12-32-13-34-16-30-16-2 6-24 46-14 27-10 19-14 27-1 3 7-9v3l-13 24-8 15-6 12-20 30-3-1 2-9h-3l-2 5-3 2-3-3-6 3-3-3-14 12-5 3 1-15h-2l-1 6-2 2-2-1-2 5-12 22-3 3 1-13 2-6-6 6h-2l-2 6-10 17-2 1-2-1-2 5-12 16-7 12-4 2-12 24-3-3-1-2-3-1 1-8-6 5-1-3-4 4v-7l-3 1-2-5-6 1-4 1 1-13-5 1v-8l-3 6-4-1 2-6 23-47 12-25 11-23 3-2 18-41 13-29 18-41 13-29 18-41 13-29 18-41 2-4-1-5-16-17-7-7-7-8-11-13-14-19-12-21-7-16v-3l9-4 4 1 16 23 16 24 10 14 16 24 11 15 4-11-7-8-15-15-2-9-6-2-8-7-6-10-10-18-14-23 2-2 16-6h2l11 18 13 20 16 25 5 9v2l10 12 3-6-29-44-25-37 4-3 4-1 50 75h3l-5-9-44-66 4-3 5-2 8 11 10 16 15 23 11 17 3-4 2-5-14-22-13-20-11-17 1-4 2-1 5 3 16 26 13 21 4 5v-4l-13-19-8-14-6-15 1-4 14 25 14 24 2-3-1-5-14-25-10-17-1-3 14-7 30-13-1-1-57 21-64 24-29 12-21 6-24 6-35 12-40 15-46 18-35 15-1-2-10 3-46 16h-3l2-4 3-3h-2l2-4 2-1h-7l-4-7v-3l4-2-6-2-4-6 22-13 7-9-3-1 4-6 7-8-4-2 15-7 30-13h2v-2l25-15 28-17 32-19v-3l-4-2v-7l3-5 7-6-6-1 1-3 13-8-12 3-6 1h-2-4l-3-4 90-35h2l-4-20-4-28-3-39v-44l2-28 4-31 7-34 8-29 11-32 13-30 15-30 14-24 13-20 14-20 14-18 11-13 12-14 31-31 11-9 9-8 20-15 17-12 28-17 29-15 27-12 27-10 29-9 36-9 39-7 19-2-12-33 1-2h3l11 18 4 5-7-20v-3l3-1 15 26h3l-9-27-1-4h3l10 18-7-20 1-3 3-1 12 17-5-15 5 4 7 8v2l5-2-6-13 1-4 4-2 6 10-3-12z" fill="#262626"/>
<path transform="translate(1136,978)" d="m0 0h2l17 49 17 47 13 33 12 28 14 30 16 30 7 11v2l-17 13-14 10-25 15-26 13-28 11-29 9-31 7-28 4-27 2h-29l-27-2-32-5-26-6-26-8-25-10-25-12-17-9-22-14-6-4 2-4 8-10 9-11 11-13 3-1 4 1 2-5 4-7h2l-2 6-5 11 2 1 1-4 6-14 3-12 1-7 1-46 4-12 5-12 5-15 7-10 10-8 12-5 26-7 35-9 43-12 48-12 104-24z" fill="#F9F9F9"/>
<path transform="translate(921,534)" d="m0 0 3 1-14 28-24 64-21 57-16 43-6 12-5 6-8 4-12 4h-3l-2-2-6 6-6 21-2 13-2 43-3 18-6 15-8 16-7 13-8 9-10 14-2 5-37 12-34 13-33 13-27 10h-3l-1-29v-16l2-24 6-48 5-27 7-27 11-32 13-32 13-30 9-19 10-16 10-13 12-14 18-18 11-9 15-12 18-13 19-12 22-12 23-11 26-10 30-9z" fill="#F9F9F9"/>
<path transform="translate(1135,550)" d="m0 0 7 4 18 14 14 11 16 13 28 24 17 16 24 24 7 8 13 15 10 13 13 18 12 19 12 21 11 23 9 23 1 6-107 15h-4l-15-33-17-38-18-43-9-22-1-6h3l-1-3-3-42v-10h-6l-14-10-6-5v-2l5 2 10 6 3-2v-4l-12-6-7-7-7-14-4-15z" fill="#F8F8F8"/>
<path transform="translate(1023,674)" d="m0 0 3 3 16 36 5 13-1 4 7 17v2l-9 2-3 4-1 5v12l3 6 2 2 5 1 6-2 5-5 1-2h2l19 44 8 20v3l-68 18-84 22-3-1 46-108 24-56z" fill="#F9F9F9"/>
<path transform="translate(935,490)" d="m0 0h10l-2 10-5 7-12 6-21 5-56 18-28 11-20 10-23 14-17 11-20 12-16 12-12 11-12 12-11 14-10 13-16 23-14 22-10 17-12 23-10 25-9 29-9 40-7 37-2 17v45l4 31 3 16-15 6h-3l-1-26v-42l2-33 4-32 7-36 9-32 12-35 13-34 10-23 11-23 13-21 13-17 12-14 24-24 11-9 16-13 17-12 15-10 15-9 18-10 29-14 24-9 29-9 27-6z" fill="#F9F9F9"/>
<path transform="translate(766,1245)" d="m0 0 5 1 29 16 23 12 24 11 16 6 38 10 30 6 27 3 25 1h13l40-2 24-3 26-5 32-9 21-8 27-12 26-11 13-3h5l-4 2v2l9-3-6 7-16 15-12 9-12 7-36 12-35 10-26 6-23 4-32 3-22 1h-34l-31-3-26-5-24-7-24-9-35-15-39-18-14-7-8-8 1-5z" fill="#F9F9F9"/>
<path transform="translate(1268,1305)" d="m0 0h4l-2 5-1 2 3 2-12 9-17 11-21 12-17 9-25 11-30 11-31 9-26 6-36 6-31 3-23 1h-22l-35-2-33-4-31-6-24-6-29-9-28-11-24-11-22-12-22-14-2-3 3-6h6l1 3 10 5 2 2 9 5 4 3 24 11 5 1 21 11 10 2 9 3-4 1v2h9l19 5 9 4 13 2 21 5 23 3 9 3 28 1 45 1h20l18-2 18-4 22-3 8-3h13l1-3 4 3 5-4 11-2 3-1v-2l4 1 21-9 25-6-4-2 9-4 6-1 1-4 6-3h9l16-8-1-3 5 1 4-4 12-7 18-13z" fill="#F9F9F9"/>
<path transform="translate(1367,921)" d="m0 0h6l1 8 4 1-2 9-5 17-8 38-6 20-6 15-6 12-2-1-6-28v-4l-4-2v-2l5-2-3-5-2-1h-8l-11-4-10-9-8-16-7-19-5-11 13-3z" fill="#F8F8F8"/>
<path transform="translate(1254,1289)" d="m0 0 2 1 2 8-7 6-22 14-23 12-29 14-25 9-29 9-35 10-19 3-19 2-24 1-82 2-28-5-61-15h-8l-30-12-20-9-25-13-23-13-9-6v-6h-2l1-5h3l25 15 27 14 19 9 28 11 25 8 32 8 29 5 27 3 17 1h41l28-2 30-4 30-6 26-7 27-9 29-12 32-16 22-13z" fill="#F9F9F9"/>
<path transform="translate(755,1267)" d="m0 0 11 6 13 8 26 14 29 13 28 10 24 7 27 6 25 4 19 2 16 1h41l26-2 28-4 29-6 31-9 27-10 29-13 10-5h2l-1 8-1 3-29 15-25 10-24 8-28 7-28 5-25 3-14 1h-52l-32-3-31-5-29-7-26-8-27-10-28-13-23-13-19-12-2-4z" fill="#F9F9F9"/>
<path transform="translate(949,419)" d="m0 0h8l4 7-1 2-10-5-2 6-1 1-20 1 1 2-19 1v2l-23 6-24 3-15 6-6 2h-2v2l-6 3h-5l1-4-16 10-10 2-21 11-4 3-16 6-3 3-3 5-1-3-7 5v2l-24 12-19 14-12 8-5 1-4 8-14 8-7 7-7 8-22 24-9 11-12 14-8 10 2 4-4 3-2-1-8 16-6 8-9 9 4 3-2 5-4-1-8 19h-1l-1-6 11-23 10-19 12-19 14-21 11-14 29-29 8-7 14-13 11-9 15-13 17-13 14-10 21-13 27-14 27-12 28-10 25-8 26-6 41-7z" fill="#F8F8F8"/>
<path transform="translate(949,441)" d="m0 0h2l2 6v4l-37 5-29 6-26 7-27 9-29 12-29 14-23 13-24 15-18 13-16 13-14 12-24 24-7 8-11 13-15 20-13 18-13 20-10 16-1-2 12-24 14-24 11-18 11-15 9-11 16-17 8-7 19-19 11-9 15-12 16-11 20-13 21-12 23-12 25-11 25-9 26-8 30-7 31-5z" fill="#F9F9F9"/>
<path transform="translate(944,473)" d="m0 0 7 1-1 6-6 2-54 12-27 8-29 11-26 12-28 14-24 14-19 12-17 13-10 8-10 9-13 12-9 10-13 15-15 20-12 18-15 25-5 8-1-2 13-26 13-23 8-14 8-12 10-13 11-12 8-8 8-7 13-11 11-9 14-11 18-13 19-12 21-12 23-11 24-9 37-10z" fill="#F9F9F9"/>
<path transform="translate(1199,538)" d="m0 0 5 2 25 16 16 11 12 9 14 11 12 11 8 7 15 15 9 11 10 12 12 17 14 24 18 35 18 37 11 23 3 8v6l-5 1-5-10-13-29-14-29-13-24-14-23-14-20-11-14-9-10-7-8-9-9-8-7-11-10-11-9-10-9-11-9-7-7-8-7-10-10-8-7z" fill="#F9F9F9"/>
<path transform="translate(1124,504)" d="m0 0h8l23 11 16 9 13 10 14 12 10 9 8 7 14 12 13 11 14 12 10 9 13 12 18 18 7 8 12 15 10 15 9 17-1 2-13-19-9-12-9-11-9-10-7-8-16-16-8-7-15-13-13-10-16-12-24-16-27-14-31-14-10-9-4-9z" fill="#F9F9F9"/>
<path transform="translate(1104,435)" d="m0 0 16 2 24 6 25 9 20 9 19 10 19 12 17 12 16 12 13 11 11 9 12 11h-3l-36-24-25-16-13-10-8-4-16-10-10-4-13-5-40-18-15-6 5 5 13 9-2 1-24-7-2-1z" fill="#F8F8F8"/>
<path transform="translate(771,1302)" d="m0 0 6 2 24 12 29 12 28 10 29 8 28 6 28 4 25 2h44l34-3 36-6 36-9 36-12 27-11 18-8 2 1-8 6-16 8-27 11-31 10-38 10-28 5-39 3h-38l-28-2-29-4-34-7-27-8-23-8-26-11-28-14-10-6z" fill="#F9F9F9"/>
<path transform="translate(947,459)" d="m0 0h6l2 3-12 3-31 4-28 6-31 9-25 9-19 8-16 8-15 8-26 16-23 15-14 9-12 9-15 13-12 12-7 8-13 15-8 10-13 16-5 4 2-5 14-20 11-13 7-8 11-12 16-15 11-9 13-10 17-12 15-10 20-12 22-12 21-10 26-10 36-12 31-9 26-4z" fill="#F9F9F9"/>
<path transform="translate(1183,559)" d="m0 0 5 2 21 12 12 8 10 8 17 14 14 12 28 28 9 11 13 16 14 20 12 20 12 23 9 19 10 26 4 12v6l-2 1-16-41-11-25-14-26-12-19-12-16-8-10-12-14-20-20-11-9-16-13-19-14-21-16-9-7-7-7z" fill="#F9F9F9"/>
<path transform="translate(1233,527)" d="m0 0 6 2 12 7 17 13 13 10 15 13 13 12 19 19 7 8 12 14 15 20 11 16 12 19 10 18 9 17 10 25 6 17-1 4-9-22-11-24-12-22-13-21-11-16-9-12-11-14-12-14-12-13-7-7-5-6-8-7-10-10-8-7-14-12-14-11-20-15z" fill="#F9F9F9"/>
<path transform="translate(1017,656)" d="m0 0 2 3-2 9-21 55-16 41-17 42-8 16-10 19-10 18-9 22-2 1 1-6 90-215z" fill="#F9F9F9"/>
<path transform="translate(1798,787)" d="m0 0m-5 1h5v2l-54 12-132 31-74 18-104 27-49 12-23 5-3-1 11-4 93-23 70-18 79-20 67-16 91-20z" fill="#F9F9F9"/>
<path transform="translate(621,709)" d="m0 0h2l-2 6-12 29-12 36-8 30-7 36-4 27-3 30-2 31h-1l-1-26v-30l2-24 6-31 9-33 11-35 10-23 10-21z" fill="#F9F9F9"/>
<path transform="translate(1114,456)" d="m0 0 7 1 30 9 30 11 17 8 14 10 14 12 12 12-2 1-24-13-18-10-29-15-22-11-23-11-6-3z" fill="#F9F9F9"/>
<path transform="translate(1265,567)" d="m0 0 4 2 13 11 11 9 15 14 19 19 11 15 12 19 14 24 16 29 13 24 15 30 6 14 1 4v10l-3-4-11-28-16-33-14-26-16-27-13-21-10-14-8-10-12-14-34-34-8-7z" fill="#F9F9F9"/>
<path transform="translate(1117,487)" d="m0 0 16 4 24 9 20 10 18 12 14 11 7 6v1l-8-1-20-10-19-10-41-21-7-5z" fill="#F9F9F9"/>
<path transform="translate(1110,954)" d="m0 0h10l-4 2-114 26-53 12-4-1 37-12 39-11 30-7 33-6z" fill="#F9F9F9"/>
<path transform="translate(1235,1219)" d="m0 0v3l-6 7-14 10-17 10-23 12-25 11-26 10-27 9-24 6-32 5-23 2h-55l-27-3-19-4-3-2 11 1 34 4 15 1h39l25-2 27-4 27-6 27-8 26-10 28-13 25-14 22-14z" fill="#F9F9F9"/>
<path transform="translate(1109,930)" d="m0 0h22v4l-20 1-51 11-56 13-84 21h-5l2-2 31-10 66-16z" fill="#F9F9F9"/>
<path transform="translate(660,1060)" d="m0 0 3 1v2l-72 27-70 26-90 34-3-1v-2l20-8 126-47 70-26z" fill="#F9F9F9"/>
<path transform="translate(1147,976)" d="m0 0 3 3 11 30 15 43 15 39 15 33 20 41 11 22 2 7-4-4-12-21-12-23-13-27-16-39-15-42-13-38-7-22z" fill="#F9F9F9"/>
<path transform="translate(1119,960)" d="m0 0h8l3 3-47 8-40 8-52 12-67 17-52 14-3-1 12-5 64-16 78-21 38-9 52-9z" fill="#F9F9F9"/>
<path transform="translate(1652,809)" d="m0 0m-5 1h5v2l-122 30-106 27-7 1v-5l117-28z" fill="#F9F9F9"/>
<path transform="translate(693,1052)" d="m0 0h6l-2 2-49 21-33 13-53 20-69 26-38 14-6 1 4-3 29-12 40-15 107-40 26-11 31-14z" fill="#F9F9F9"/>
<path transform="translate(647,1033)" d="m0 0 2 1-8 4-187 69-20 8-2-1 9-6 55-21 42-16 46-17z" fill="#F9F9F9"/>
<path transform="translate(1555,851)" d="m0 0m-4 1h4v2l-59 15-82 22-52 13-22 5h-3l1-4 176-44z" fill="#F9F9F9"/>
<path transform="translate(1084,681)" d="m0 0h4l13 28 19 40 16 34 12 26v3l-4 1-16-34-12-26-32-69z" fill="#F9F9F9"/>
<path transform="translate(1392,1048)" d="m0 0 3 1-3 9-16 35-12 27-2 2-4-11 1-6 14-24 15-27z" fill="#F9F9F9"/>
<path transform="translate(1371,631)" d="m0 0 3 1 11 18 18 27 8 13 17 41 2 7-4-2-6-9-10-21-1-5h2l-5-8-5-6-12-24-7-11-5-8z" fill="#F9F9F9"/>
<path transform="translate(1285,667)" d="m0 0 6 4 16 26 12 19 13 22 12 22 11 23-1 3-17-29-13-22-17-29-13-22-9-15z" fill="#F9F9F9"/>
<path transform="translate(921,521)" d="m0 0h6l2 2-26 6-52 18-29 12-23 12-26 16-18 11-2-1 17-11 22-14 22-13 17-9 25-10 26-8z" fill="#F9F9F9"/>
<path transform="translate(722,1396)" d="m0 0h7l6 4 4 5-3 12-5 6-2 1h-7l-4-4-2-5v-13l4-5z" fill="#262626"/>
<path transform="translate(1267,717)" d="m0 0h8l6 5 5 9-1 7-6 5h-10l-5-5-2-7v-7l4-6z" fill="#262626"/>
<path transform="translate(1111,944)" d="m0 0h7v1l-87 19-63 15-8 2-4-1 36-11 36-9 47-10 28-5z" fill="#F9F9F9"/>
<path transform="translate(643,1086)" d="m0 0 4 1-47 18-62 23-57 21-5 2-3-1 29-12 41-16 48-18 43-15z" fill="#F9F9F9"/>
<path transform="translate(689,1088)" d="m0 0h2l-3 9-10 25-2 1-12-20-2-3v-3z" fill="#F9F9F9"/>
<path transform="translate(385,1077)" d="m0 0 7 1 5 5 1 7-2 6-7 4-9 1-6-3-2-3v-6l4-6z" fill="#262626"/>
<path transform="translate(639,735)" d="m0 0 1 2-11 27-10 30-9 36-6 34-3 25h-1v-16l3-28 5-27 7-25 10-27 12-29z" fill="#F9F9F9"/>
<path transform="translate(1502,1536)" d="m0 0 3 3 20 45 18 44 5 12-1 3-15-31-13-28-16-36z" fill="#F9F9F9"/>
<path transform="translate(1065,706)" d="m0 0 3 4 19 39 13 28 12 26 5 15 1 10-2-3-19-44-16-35-16-36z" fill="#F9F9F9"/>
<path transform="translate(1417,1069)" d="m0 0 1 2-11 23-24 50-5 10-4-2v-6l14-26 13-23 10-19z" fill="#F9F9F9"/>
<path transform="translate(1344,808)" d="m0 0h5v3l-72 11-33 5-5-1v-3l48-7z" fill="#F9F9F9"/>
<path transform="translate(1475,1647)" d="m0 0h2l4 6 1 5 3 3-3-11h2l7 14v2l-2 1 14 26 4 10v6h-2l-14-26-10-18-8-14z" fill="#F8F8F8"/>
<path transform="translate(1074,860)" d="m0 0h2v4l-54 14-39 10h-5v-3l54-14z" fill="#F9F9F9"/>
<path transform="translate(1420,1105)" d="m0 0 3 1-8 14-10 18-14 24-6 10-2 1-3-3 11-18 3-3 12-25 7-13z" fill="#F9F9F9"/>
<path transform="translate(635,776)" d="m0 0h1l-1 9-21 84h-1l1-14 4-24 7-28 9-26z" fill="#F9F9F9"/>
<path transform="translate(1442,1107)" d="m0 0h2l-2 5-14 25-14 24-16 28-6 9-2-2 1-5 16-27 16-26 17-28z" fill="#F9F9F9"/>
<path transform="translate(1356,842)" d="m0 0h4v2l-15 5 2 4-39 3-11 2h-7v-3l25-5z" fill="#EFEFEF"/>
<path transform="translate(530,940)" d="m0 0h2l4 21 6 38-1 3-5 2h-3z" fill="#F9F9F9"/>
<path transform="translate(1061,684)" d="m0 0h2l20 41 13 28 17 35 8 18h-4l-56-120z" fill="#F9F9F9"/>
<path transform="translate(1181,347)" d="m0 0 7 1 4 6 1 3v8l-4 4h-7l-6-4v-13z" fill="#262626"/>
<path transform="translate(1359,736)" d="m0 0 4 5 14 26 10 18 2 10-7 1-18-46-5-11z" fill="#F9F9F9"/>
<path transform="translate(737,1078)" d="m0 0h2l-2 6-23 46h-2l1-11 6-16 7-13 9-10z" fill="#F9F9F9"/>
<path transform="translate(534,1608)" d="m0 0h9l4 4 1 6-7 8-2 1h-8l-3-3 1-8z" fill="#262626"/>
<path transform="translate(1401,1072)" d="m0 0h2l-2 6-31 62-2-1v-8l16-30 13-23z" fill="#F9F9F9"/>
<path transform="translate(1065,764)" d="m0 0 3 4 20 40 13 29v2l-5-1-12-26-17-39-2-5z" fill="#F9F9F9"/>
<path transform="translate(564,1069)" d="m0 0 3 1-17 8-99 37h-3v-2l58-22 40-15z" fill="#F9F9F9"/>
<path transform="translate(563,939)" d="m0 0 2 3 7 44v5l-9 2z" fill="#F9F9F9"/>
<path transform="translate(1476,914)" d="m0 0h3l-1 20-4 50-3 1-2-12 2-5-1-15h3v-11l2-25z" fill="#F9F9F9"/>
<path transform="translate(1177,567)" d="m0 0 4 2 11 10 11 9 12 11 11 9 12 11h-3l-17-14-14-11-16-13-13-10z" fill="#F9F9F9"/>
<path transform="translate(1187,1067)" d="m0 0h3l29 67 7 16-1 4-8-16-13-30-17-38z" fill="#F9F9F9"/>
<path transform="translate(587,709)" d="m0 0 1 3-21 57-9 25-1-4 5-20 11-28 13-31z" fill="#F9F9F9"/>
<path transform="translate(1029,655)" d="m0 0 2 1 19 51-2 2-6-12-17-39z" fill="#F9F9F9"/>
<path transform="translate(1408,652)" d="m0 0 3 3 13 21 14 24 6 16 1 6-3-4-17-33-12-22-5-9z" fill="#F9F9F9"/>
<path transform="translate(1352,825)" d="m0 0h4v3l-50 9-23 4h-7l2-2z" fill="#F9F9F9"/>
<path transform="translate(1280,451)" d="m0 0 5 2 2 4v9l-3 3-7-1-4-5 2-9z" fill="#262626"/>
<path transform="translate(1100,416)" d="m0 0 5 1 26 13 1 2-8-1-25-6-2-1 2-7z" fill="#F9F9F9"/>
<path transform="translate(1144,484)" d="m0 0 10 2 16 7 23 12 9 6-1 3-29-15-19-10-9-4z" fill="#F9F9F9"/>
<path transform="translate(832,1056)" d="m0 0h2l-1 5-16 39-4 8-3-1 1-5 17-38z" fill="#F9F9F9"/>
<path transform="translate(940,533)" d="m0 0 1 2-18 40-3 4h-2l1-5 15-35 4-5z" fill="#F9F9F9"/>
<path transform="translate(1089,717)" d="m0 0h2l14 30 18 39 2 6-4-4-11-22-15-33-6-13z" fill="#F9F9F9"/>
<path transform="translate(1489,680)" d="m0 0 5 1 2 3v8l-4 5-6-1-3-6 1-6z" fill="#262626"/>
<path transform="translate(529,1264)" d="m0 0h7l2 1v7l-4 5h-9l-3-3 1-5z" fill="#262626"/>
<path transform="translate(1120,543)" d="m0 0h4l14 45v3h-3l-15-46z" fill="#F9F9F9"/>
<path transform="translate(512,975)" d="m0 0 2 4 5 16 1 13-1 3h-5l-2-24z" fill="#F9F9F9"/>
<path transform="translate(1408,1289)" d="m0 0 3 4 13 30 7 17-3 1-14-32-6-17z" fill="#F9F9F9"/>
<path transform="translate(891,825)" d="m0 0 1 2-19 43-7 14-1-3 18-41 7-14z" fill="#F9F9F9"/>
<path transform="translate(772,1234)" d="m0 0 6 2 28 17 8 5-2 1-33-17-8-4z" fill="#F9F9F9"/>
<path transform="translate(322,1097)" d="m0 0h6l2 4-1 5-5 3-6-1-1-1 1-7z" fill="#262626"/>
<path transform="translate(1341,896)" d="m0 0h8l-1 2-9 2-1 1-17 3-7 1v-5z" fill="#F9F9F9"/>
<path transform="translate(1367,442)" d="m0 0h5l2 3v7l-2 3h-5l-3-4v-6z" fill="#262626"/>
<path transform="translate(651,1101)" d="m0 0h2l14 25 5 9-3 1-15-26-4-6z" fill="#F9F9F9"/>
<path transform="translate(881,1075)" d="m0 0h5l3 3-1 7-3 3-5-1-1-2v-9z" fill="#262626"/>
<path transform="translate(650,1281)" d="m0 0h4l-3 9-10 21h-3l5-13z" fill="#F9F9F9"/>
<path transform="translate(576,662)" d="m0 0 6 2-2 6-4-1-8 19h-1l-1-6 9-19z" fill="#F9F9F9"/>
<path transform="translate(1099,318)" d="m0 0h5l3 6-1 5-1 1-7-1-1-1v-7z" fill="#262626"/>
<path transform="translate(1403,532)" d="m0 0h5l3 7-1 4-6 1-3-2v-8z" fill="#262626"/>
<path transform="translate(1455,1397)" d="m0 0 2 4 8 25h-2l-13-25 1-2 3 3z" fill="#F9F9F9"/>
<path transform="translate(1335,1017)" d="m0 0 2 2 4 24v6h-3l-4-24v-7z" fill="#F9F9F9"/>
<path transform="translate(920,850)" d="m0 0 2 1-13 36-3-1 1-5z" fill="#F9F9F9"/>
<path transform="translate(695,1182)" d="m0 0h4l-3 11-3 10-2 1-3-2z" fill="#F9F9F9"/>
<path transform="translate(1360,1055)" d="m0 0 1 3-10 24-3 1-2-1 2-6z" fill="#F9F9F9"/>
<path transform="translate(1111,499)" d="m0 0h3l6 18-1 2h-4l-5-19z" fill="#F9F9F9"/>
<path transform="translate(1403,1037)" d="m0 0 4 2-13 31-1-3z" fill="#F9F9F9"/>
<path transform="translate(1094,864)" d="m0 0h3l1 4-27 6-3-1 10-4z" fill="#F9F9F9"/>
<path transform="translate(667,1237)" d="m0 0h2l4 6-1 6-1 2-4-2-4-4z" fill="#F9F9F9"/>
<path transform="translate(1432,1049)" d="m0 0h2l2 4-1 4-9 15-1-3z" fill="#F9F9F9"/>
<path transform="translate(527,1320)" d="m0 0 5 1 1 1v5l-5 2-5-2-1-4 1-2z" fill="#262626"/>
<path transform="translate(594,1559)" d="m0 0h5l1 1-1 7-2 2-5-1v-8z" fill="#262626"/>
<path transform="translate(684,1208)" d="m0 0h3v13l-5-2-3-2 2-4z" fill="#F9F9F9"/>
<path transform="translate(1094,430)" d="m0 0 2 3 4 13h-3l-6-6 1-6z" fill="#F9F9F9"/>
<path transform="translate(699,647)" d="m0 0v3l-14 18-5 5v-4l12-14z" fill="#F9F9F9"/>
<path transform="translate(948,886)" d="m0 0 5 1-3 2-21 5h-2v-3z" fill="#F9F9F9"/>
<path transform="translate(1452,1055)" d="m0 0 5 2-2 5-7 9h-2l3-9z" fill="#F9F9F9"/>
<path transform="translate(1251,1277)" d="m0 0 4 1-2 4-16 9-2-1z" fill="#F9F9F9"/>
<path transform="translate(1088,467)" d="m0 0 9 1 1 2v8l-8-6-2-2z" fill="#F9F9F9"/>
<path transform="translate(321,1207)" d="m0 0h4l-1 3-24 7-3-1z" fill="#F9F9F9"/>
<path transform="translate(957,488)" d="m0 0h2l-1 5-7 17-3-1 2-6z" fill="#F9F9F9"/>
<path transform="translate(1094,479)" d="m0 0h2l7 11-1 4h-3l-6-12z" fill="#F9F9F9"/>
<path transform="translate(1087,446)" d="m0 0h2l5 11-6-2-5-3z" fill="#F9F9F9"/>
<path transform="translate(1350,1050)" d="m0 0 1 2-8 16-3-3 2-5z" fill="#F9F9F9"/>
<path transform="translate(1410,870)" d="m0 0 4 1-1 2-22 5-4-1z" fill="#F9F9F9"/>
<path transform="translate(1132,534)" d="m0 0 4 2 13 9-2 1-16-8z" fill="#F9F9F9"/>
<path transform="translate(1042,286)" d="m0 0 4 2v6l-5 1-2-4 1-4z" fill="#262626"/>
<path transform="translate(658,1261)" d="m0 0 5 2 1 3-3 7-2-2-2-5z" fill="#F9F9F9"/>
<path transform="translate(966,920)" d="m0 0h2l-1 3-17 4h-5l1-2z" fill="#F9F9F9"/>
<path transform="translate(1437,759)" d="m0 0 3 3 5 9-1 3h-3l-4-12z" fill="#F9F9F9"/>
<path transform="translate(1417,1569)" d="m0 0 5 5 6 9-4 1-7-13z" fill="#F9F9F9"/>
<path transform="translate(1273,300)" d="m0 0h5v5l-2 2h-4l-1-5z" fill="#262626"/>
<path transform="translate(581,759)" d="m0 0 1 3-5 16-3-1 3-9z" fill="#F9F9F9"/>
<path transform="translate(1222,534)" d="m0 0 4 1 14 11 1 2-4-2-14-10z" fill="#F9F9F9"/>
<path transform="translate(1113,462)" d="m0 0 5 2 7 5-3 1-10-4z" fill="#F9F9F9"/>
<path transform="translate(1360,621)" d="m0 0h7v8l-3-1z" fill="#F9F9F9"/>
<path transform="translate(1283,905)" d="m0 0h9v1l-15 3h-3v-3z" fill="#F9F9F9"/>
<path transform="translate(1316,566)" d="m0 0 5 5 2 3-8-1z" fill="#F9F9F9"/>
<path transform="translate(1101,497)" d="m0 0 3 1 4 13-3-1-4-10z" fill="#F9F9F9"/>
<path transform="translate(777,1085)" d="m0 0 2 1-2 5-5 8-1-2z" fill="#F9F9F9"/>
<path transform="translate(631,1233)" d="m0 0h3l-1 9h-3v-7z" fill="#F9F9F9"/>
<path transform="translate(642,1214)" d="m0 0 4 1-2 5-4 2-1-2z" fill="#F9F9F9"/>
<path transform="translate(1099,455)" d="m0 0 3 1 4 6v2l-4-1-4-7z" fill="#F9F9F9"/>
<path transform="translate(585,1172)" d="m0 0 4 2 6 5-1 3-7-6z" fill="#F9F9F9"/>
<path transform="translate(699 1e3)" d="m0 0 3 1-11 5h-3v-3z" fill="#F9F9F9"/>
<path transform="translate(706,1272)" d="m0 0h2l-1 8-4 1z" fill="#F9F9F9"/>
<path transform="translate(673,1226)" d="m0 0 4 2 3 6h-4l-3-5z" fill="#F9F9F9"/>
</svg>
